<?xml version="1.0" encoding="utf-8"?>
<!-- Generator: Adobe Illustrator 16.0.4, SVG Export Plug-In . SVG Version: 6.00 Build 0)  -->
<!DOCTYPE svg PUBLIC "-//W3C//DTD SVG 1.1//EN" "http://www.w3.org/Graphics/SVG/1.1/DTD/svg11.dtd">
<svg version="1.1" id="Layer_1" xmlns="http://www.w3.org/2000/svg" xmlns:xlink="http://www.w3.org/1999/xlink" x="0px" y="0px"
	 width="100px" height="100px" viewBox="0 0 100 100" enable-background="new 0 0 100 100" xml:space="preserve">
<g>
	<path fill-rule="evenodd" clip-rule="evenodd" fill="#FFFFFF" d="M50,1.213c-27.622,0-50.021,22.394-50.021,50.021
		c0,22.102,14.333,40.853,34.208,47.467c2.5,0.464,3.418-1.086,3.418-2.409c0-1.19-0.047-5.132-0.068-9.312
		c-13.916,3.026-16.852-5.902-16.852-5.902c-2.276-5.78-5.555-7.318-5.555-7.318c-4.539-3.104,0.343-3.041,0.343-3.041
		c5.022,0.354,7.667,5.155,7.667,5.155c4.461,7.647,11.703,5.436,14.557,4.158c0.449-3.233,1.745-5.441,3.176-6.69
		c-11.111-1.263-22.791-5.553-22.791-24.719c0-5.461,1.954-9.923,5.155-13.427c-0.52-1.26-2.232-6.348,0.483-13.238
		c0,0,4.201-1.345,13.76,5.127c3.991-1.108,8.269-1.664,12.52-1.683c4.251,0.019,8.533,0.575,12.531,1.683
		c9.547-6.472,13.743-5.127,13.743-5.127c2.721,6.89,1.01,11.978,0.49,13.238c3.208,3.503,5.149,7.966,5.149,13.427
		c0,19.213-11.703,23.44-22.842,24.682c1.794,1.552,3.394,4.596,3.394,9.262c0,6.692-0.061,12.08-0.061,13.726
		c0,1.333,0.901,2.893,3.437,2.402c19.866-6.623,34.18-25.367,34.18-47.46C100.021,23.607,77.626,1.213,50,1.213z"/>
	<path fill="#FFFFFF" d="M18.925,73.034c-0.11,0.249-0.502,0.324-0.858,0.152c-0.364-0.164-0.566-0.501-0.449-0.752
		c0.108-0.256,0.499-0.327,0.861-0.157C18.842,72.44,19.05,72.785,18.925,73.034L18.925,73.034z M18.31,72.578"/>
	<path fill="#FFFFFF" d="M20.951,75.294c-0.238,0.219-0.705,0.118-1.022-0.23c-0.327-0.351-0.388-0.816-0.145-1.041
		c0.245-0.221,0.697-0.116,1.025,0.232C21.136,74.606,21.2,75.071,20.951,75.294L20.951,75.294z M20.473,74.78"/>
	<path fill="#FFFFFF" d="M22.923,78.173c-0.306,0.216-0.808,0.016-1.118-0.431c-0.307-0.443-0.307-0.978,0.007-1.189
		c0.31-0.216,0.804-0.022,1.118,0.416C23.237,77.423,23.237,77.958,22.923,78.173L22.923,78.173z M22.923,78.173"/>
	<path fill="#FFFFFF" d="M25.624,80.958c-0.273,0.303-0.858,0.22-1.284-0.193c-0.438-0.401-0.56-0.976-0.285-1.277
		c0.278-0.303,0.866-0.218,1.296,0.191C25.785,80.083,25.917,80.659,25.624,80.958L25.624,80.958z M25.624,80.958"/>
	<path fill="#FFFFFF" d="M29.352,82.575c-0.121,0.39-0.684,0.567-1.25,0.401c-0.567-0.17-0.936-0.629-0.822-1.026
		c0.117-0.396,0.683-0.581,1.252-0.402C29.1,81.721,29.469,82.174,29.352,82.575L29.352,82.575z M29.352,82.575"/>
	<path fill="#FFFFFF" d="M33.446,82.873c0.014,0.412-0.467,0.755-1.061,0.762c-0.598,0.013-1.083-0.32-1.089-0.725
		c0-0.419,0.47-0.757,1.068-0.767C32.959,82.133,33.446,82.466,33.446,82.873L33.446,82.873z M33.446,82.873"/>
	<path fill="#FFFFFF" d="M37.255,82.227c0.072,0.401-0.341,0.812-0.932,0.924c-0.581,0.106-1.118-0.144-1.192-0.543
		c-0.072-0.411,0.348-0.825,0.928-0.933C36.651,81.574,37.181,81.813,37.255,82.227L37.255,82.227z M37.255,82.227"/>
</g>
</svg>
